<svg width="50" height="50" viewBox="0 0 50 50" fill="none" xmlns="http://www.w3.org/2000/svg">
<path d="M49.0805 17.7991C48.509 17.1577 47.7281 16.7406 46.8773 16.6222V16.6204L33.5889 14.7847L28.3304 2.21954C27.5626 0.380339 25.4491 -0.488149 23.61 0.279691C22.7333 0.645772 22.0362 1.34278 21.6702 2.21954L16.4117 14.7847L3.12329 16.6204C1.14348 16.896 -0.238088 18.7245 0.0374931 20.7043C0.155928 21.5551 0.573067 22.336 1.21442 22.9075L11.2263 31.8354L9.16913 45.8451C8.94628 47.2677 9.59966 48.685 10.8262 49.4395C12.0354 50.2127 13.5909 50.1839 14.7705 49.3662L25.0002 42.4095L35.2299 49.3733C36.8805 50.4937 39.1269 50.0638 40.2474 48.4131C40.7565 47.6629 40.965 46.7488 40.8314 45.8522L38.7743 31.8371L48.7862 22.9092C50.2786 21.5794 50.4104 19.2914 49.0805 17.7991ZM35.6781 29.8194C35.2302 30.2196 35.0135 30.818 35.1013 31.4122L37.244 46.4112L26.0091 38.7724C25.4034 38.3609 24.6077 38.3609 24.0021 38.7724L12.701 46.3647L14.8991 31.4051C14.9845 30.8133 14.7679 30.2181 14.3223 29.8195L3.60875 20.163L17.9078 18.1899C18.5339 18.1035 19.0676 17.6927 19.3112 17.1096L25.0215 3.57129C25.028 3.57924 25.0328 3.58834 25.0359 3.59807L30.6873 17.1025C30.9309 17.6856 31.4647 18.0964 32.0907 18.1827L46.4076 20.2433L35.6781 29.8194Z" fill="#F66A15"/>
</svg>
